<?xml version="1.0" encoding="UTF-8"?>
<svg id="Layer_1" data-name="Layer 1" xmlns="http://www.w3.org/2000/svg" viewBox="0 0 71.82 71.92">
  <defs>
    <style>
      .cls-1 {
        fill: #d10459;
      }
    </style>
  </defs>
  <path class="cls-1" d="M36,0C16.33-.09,.07,16.05,0,35.73c-.07,20,16.08,36.2,36.06,36.19,19.64-.01,35.75-16.24,35.75-35.99C71.82,16.18,55.77,.09,36,0Zm16.9,50.93c-11.27,0-22.54,0-33.81,.01-2.94,0-4.17-1.48-4.15-4.33,.04-4.64,.01-9.28,.01-14.76,5.82,2.9,11,5.1,15.78,7.97,3.78,2.27,6.92,1.95,10.57-.1,4.85-2.73,9.93-5.05,15.56-7.87,0,5.56,0,10.32,0,15.08,0,2.64-1.31,3.99-3.96,3.99Zm2.6-25.31c-6.18,3.21-12.43,6.3-18.67,9.4-.98,.48-1.97,.07-2.86-.38-5.5-2.74-10.98-5.51-16.47-8.26-1.62-.81-2.77-1.96-2.48-3.89,.41-2.71,2.62-1.42,3.98-1.46,5.65-.15,11.3-.06,16.95-.06,5.98,0,11.97-.03,17.95,.03,1.01,.01,2.49-.62,2.86,1.08,.3,1.38,.03,2.86-1.26,3.53Z"/>
</svg>