<?xml version="1.0" encoding="UTF-8"?>
<svg id="Layer_2" data-name="Layer 2" xmlns="http://www.w3.org/2000/svg" viewBox="0 0 26 26">
  <defs>
    <style>
      .cls-1 {
        fill: #8ed5e3;
      }
    </style>
  </defs>
  <g id="Layer_1-2" data-name="Layer 1">
    <path class="cls-1" d="M0,0V26H26V0H0ZM15.54,9.73s-.06,0-.1,0c-.33,0-.66,0-.99,.02-.42,.02-.66,.24-.68,.66-.02,.42,0,.84,0,1.27h1.72c-.08,.59-.15,1.17-.23,1.75h-1.49s0,.06,0,.08c0,1.44,0,2.89,0,4.33,0,.02,0,.03,0,.05h-1.8s0-.08,0-.12c0-1.4,0-2.81,0-4.21v-.13h-1.5v-1.75h1.5c0-.05,0-.09,0-.13,0-.46,0-.92,.01-1.38,.03-.62,.23-1.17,.72-1.59,.33-.28,.72-.43,1.15-.47,.51-.05,1.01-.01,1.52,.03,.06,0,.11,0,.18,.01v1.56Z"/>
  </g>
</svg>