<?xml version="1.0" encoding="UTF-8"?>
<svg id="Layer_2" data-name="Layer 2" xmlns="http://www.w3.org/2000/svg" viewBox="0 0 26 26">
  <defs>
    <style>
      .cls-1 {
        fill: #8ed5e3;
      }
    </style>
  </defs>
  <g id="Layer_1-2" data-name="Layer 1">
    <g>
      <path class="cls-1" d="M0,0V26H26V0H0ZM17.5,14.83c-.02,.16-.03,.32-.05,.48-.06,.44-.21,.86-.49,1.22-.48,.63-1.15,.89-1.92,.95-.2,.01-.39,.02-.59,.04h-2.89c-.08,0-.16-.01-.24-.02-.28-.03-.56-.03-.84-.09-1-.22-1.62-.83-1.87-1.82-.11-.44-.11-.9-.11-1.35,0-.81,0-1.63,0-2.44,0-.47,0-.93,.12-1.39,.17-.7,.57-1.24,1.21-1.57,.45-.23,.94-.31,1.44-.31,.84-.01,1.67-.02,2.51-.02,.55,0,1.1,0,1.65,.09,1.09,.19,1.84,.95,2.01,2.08,.02,.14,.04,.29,.05,.43v3.73Z"/>
      <path class="cls-1" d="M15.43,9.42c-.37-.1-.76-.09-1.14-.1-.74,0-1.48,0-2.23,0-.45,0-.9,0-1.34,.07-.67,.12-1.12,.5-1.3,1.18-.08,.32-.09,.64-.1,.97,0,.98,0,1.95,0,2.93,0,.28,.03,.56,.07,.84,.07,.45,.29,.82,.67,1.07,.3,.2,.64,.27,.99,.28,.64,.02,1.29,.03,1.94,.05,0,0,0-.01,0-.02,.33,0,.66,0,.99,0,.45-.01,.9,0,1.34-.08,.63-.13,1.06-.49,1.24-1.12,.09-.31,.11-.63,.11-.95,.01-.75,.02-1.5,.01-2.25,0-.5-.02-1.01-.07-1.51-.07-.71-.52-1.2-1.2-1.37Zm-2.42,5.9c-1.28,0-2.33-1.05-2.32-2.33,0-1.28,1.05-2.32,2.32-2.31,1.28,0,2.32,1.05,2.31,2.32,0,1.28-1.05,2.32-2.32,2.32Zm2.4-4.19c-.3,0-.54-.24-.54-.54,0-.3,.25-.54,.54-.54,.3,0,.54,.25,.54,.55,0,.3-.24,.54-.55,.54Z"/>
      <path class="cls-1" d="M13.01,11.5c-.84,0-1.5,.67-1.5,1.5,0,.83,.67,1.5,1.5,1.5,.83,0,1.5-.67,1.5-1.5,0-.83-.67-1.5-1.5-1.5Z"/>
    </g>
  </g>
</svg>