<?xml version="1.0" encoding="utf-8"?>
<!-- Generator: Adobe Illustrator 26.5.0, SVG Export Plug-In . SVG Version: 6.00 Build 0)  -->
<svg version="1.1" id="Layer_1" xmlns="http://www.w3.org/2000/svg" xmlns:xlink="http://www.w3.org/1999/xlink" x="0px" y="0px"
	 viewBox="0 0 53.9 69" style="enable-background:new 0 0 53.9 69;" xml:space="preserve">
<style type="text/css">
	.st0{fill:#D10459;}
</style>
<g>
	<path class="st0" d="M23.8,31.5c-5.9,0-10.6-0.1-15.2,0c-2.2,0.1-2.9-0.7-2.9-2.9c0.1-6.5-0.1-13,0.1-19.5c0.1-5.3,3.4-8.9,8.7-9
		c10.1-0.2,20.3-0.2,30.5,0c5.3,0.1,8.7,3.6,8.7,9c0.1,16.8,0.1,33.6,0,50.4c0,5.4-3.2,9-8.5,9.2c-10.3,0.3-20.6,0.3-30.9,0
		C9,68.6,6,65,5.9,59.5c-0.1-4.3-0.1-8.7,0-13c0-1.9-0.1-3.2-2.6-3.1C1.4,43.5,0,42.5,0,40.5c0.1-2.3,1.8-3,3.8-3c6.3,0,12.6,0,20,0
		c-2.1,2.2-3.5,3.7-4.9,5.2c-1.1,1.2-1.6,2.6-0.3,4c1.4,1.5,3,1.4,4.4,0.1c3.5-3.3,6.9-6.7,10.3-10.2c1.5-1.6,1-3.4-0.4-4.9
		c-3.1-3.1-6.1-6.1-9.2-9.2c-1.4-1.4-3.1-2.2-4.8-0.6c-1.8,1.7-0.8,3.3,0.6,4.7C20.6,28.1,21.8,29.3,23.8,31.5z"/>
</g>
</svg>
