<?xml version="1.0" encoding="UTF-8"?>
<svg id="Layer_2" data-name="Layer 2" xmlns="http://www.w3.org/2000/svg" viewBox="0 0 26 26">
  <defs>
    <style>
      .cls-1 {
        fill: #8ed5e3;
      }
    </style>
  </defs>
  <g id="Layer_1-2" data-name="Layer 1">
    <path class="cls-1" d="M0,0V26H26V0H0ZM17.19,10.6c-.17,.17-.35,.33-.53,.49-.05,.05-.07,.09-.07,.16,.02,1.25-.35,2.38-1.09,3.37-.81,1.09-1.89,1.75-3.23,1.97-1.31,.22-2.55,0-3.69-.69-.02-.01-.04-.03-.06-.04,0,0,0-.01,0-.02,.99,.09,1.89-.15,2.7-.76-.85-.08-1.41-.5-1.73-1.29,.28,.03,.53,.04,.81-.03-.91-.28-1.4-.89-1.46-1.85,.27,.13,.52,.22,.81,.23-.82-.69-.99-1.5-.55-2.48,1.02,1.2,2.28,1.84,3.83,1.95-.08-.39-.06-.75,.09-1.11,.49-1.23,2.06-1.57,3.02-.65,.05,.05,.1,.06,.16,.04,.34-.08,.67-.2,.97-.37,.03-.02,.06-.03,.11-.06-.15,.43-.4,.75-.76,1,.34-.03,.67-.13,.98-.26,0,0,.01,.01,.02,.02-.1,.13-.19,.26-.31,.38Z"/>
  </g>
</svg>