<?xml version="1.0" encoding="UTF-8"?>
<svg id="Layer_2" data-name="Layer 2" xmlns="http://www.w3.org/2000/svg" viewBox="0 0 26 26">
  <defs>
    <style>
      .cls-1 {
        fill: #8ed5e3;
      }
    </style>
  </defs>
  <g id="Layer_1-2" data-name="Layer 1">
    <g>
      <path class="cls-1" d="M12.1,14.33c.78-.45,1.55-.9,2.34-1.35-.78-.45-1.56-.9-2.34-1.35v2.69Z"/>
      <path class="cls-1" d="M0,0V26H26V0H0ZM17.4,14.64c-.02,.18-.05,.37-.1,.54-.13,.45-.51,.76-1.01,.82-.91,.11-1.82,.12-2.73,.14-.19,0-.38,0-.56,0,0,0,0,.02,0,.03-.94-.04-1.88-.07-2.81-.12-.21,0-.42-.04-.63-.08-.51-.11-.83-.42-.92-.93-.07-.39-.12-.78-.13-1.17-.02-.59-.02-1.18,0-1.76,.02-.41,.07-.82,.15-1.23,.09-.5,.5-.84,1.01-.9,.88-.11,1.77-.13,2.66-.13,.98,0,1.96,.02,2.94,.05,.36,.01,.72,.05,1.08,.1,.56,.09,.9,.43,1,.99,.14,.79,.16,1.59,.14,2.38-.01,.42-.05,.85-.09,1.27Z"/>
    </g>
  </g>
</svg>